<svg width="37" height="40" viewBox="0 0 37 40" fill="none" xmlns="http://www.w3.org/2000/svg">
<path d="M33.015 32.4875L33.6422 32.1454C35.2958 31.1761 36.3222 29.4084 36.3222 27.4697C36.3222 27.1276 36.1511 26.8425 35.866 26.6714L12.9437 13.3856C11.8603 12.7584 11.8033 11.1618 12.8297 10.4775L16.0228 8.31076C17.3343 7.45545 18.9879 7.34141 20.3564 8.1397L34.5545 16.2937C35.3528 16.7498 36.3222 16.1796 36.3222 15.2673V12.8154C36.3222 10.8767 35.2958 9.10905 33.6422 8.1397L20.8696 0.727014C19.216 -0.242338 17.1632 -0.242338 15.4526 0.727014L2.73699 8.08268C1.02637 9.05203 0 10.8197 0 12.7584V16.0086C0 17.206 0.627227 18.2894 1.6536 18.8596L25.2602 32.4875C27.655 33.856 30.6201 33.856 33.015 32.4875Z" fill="#F8CB48"/>
<path d="M0 26.6713C0 29.0662 1.31148 31.347 3.42124 32.5444L14.7684 39.1018C16.8781 40.2992 19.444 40.2992 21.5538 39.1018C22.9223 38.3035 22.9223 36.3078 21.5538 35.5095L3.13614 24.8466C1.76764 24.0484 0 25.0747 0 26.6713Z" fill="#F8CB48"/>
</svg>
