<svg width="180" height="180" viewBox="0 0 180 180" fill="none" xmlns="http://www.w3.org/2000/svg">
<path d="M134.147 123.459L139.39 127.846L138.11 129.375C137.74 129.817 137.393 130.115 137.068 130.268C136.744 130.422 136.441 130.469 136.16 130.409C135.876 130.352 135.615 130.223 135.374 130.021C135.054 129.754 134.854 129.447 134.772 129.1C134.692 128.756 134.731 128.439 134.887 128.149C134.727 128.326 134.532 128.464 134.3 128.565C134.069 128.666 133.822 128.702 133.559 128.674C133.299 128.648 133.043 128.531 132.793 128.322C132.433 128.02 132.203 127.687 132.104 127.322C132.005 126.961 132.013 126.595 132.126 126.225C132.24 125.854 132.436 125.503 132.714 125.171L134.147 123.459ZM134.174 124.818L133.498 125.626C133.231 125.945 133.087 126.259 133.068 126.565C133.049 126.876 133.186 127.154 133.479 127.4C133.719 127.601 133.936 127.704 134.127 127.709C134.319 127.714 134.497 127.656 134.659 127.535C134.822 127.414 134.979 127.263 135.13 127.083L135.851 126.221L134.174 124.818ZM136.5 126.764L135.918 127.46C135.737 127.676 135.62 127.879 135.568 128.069C135.516 128.258 135.525 128.439 135.596 128.613C135.667 128.787 135.8 128.956 135.995 129.119C136.226 129.316 136.452 129.397 136.674 129.362C136.896 129.331 137.164 129.128 137.478 128.753L138.054 128.065L136.5 126.764Z" fill="#8D91A5"/>
<path d="M127.448 130.819L131.827 136.068L131.015 136.746L126.931 131.85L127.645 131.928L124.832 134.275L124.206 133.524L127.448 130.819Z" fill="#8D91A5"/>
<path d="M117.728 137.732C118.161 137.486 118.604 137.39 119.058 137.446C119.513 137.505 119.959 137.717 120.397 138.081C120.836 138.448 121.248 138.971 121.634 139.649C122.194 140.636 122.432 141.501 122.346 142.245C122.258 142.991 121.89 143.548 121.241 143.917C120.584 144.29 119.916 144.322 119.235 144.013C118.555 143.703 117.935 143.055 117.374 142.069C116.989 141.39 116.751 140.768 116.66 140.203C116.569 139.642 116.615 139.152 116.797 138.731C116.979 138.314 117.289 137.981 117.728 137.732ZM118.208 138.578C117.824 138.796 117.627 139.139 117.618 139.605C117.608 140.076 117.836 140.721 118.302 141.542C118.757 142.343 119.185 142.852 119.585 143.068C119.984 143.288 120.376 143.289 120.76 143.071C121.139 142.855 121.339 142.519 121.359 142.06C121.379 141.605 121.161 140.978 120.706 140.176C120.24 139.356 119.802 138.83 119.393 138.597C118.982 138.369 118.587 138.363 118.208 138.578Z" fill="#8D91A5"/>
<path d="M108.755 141.931C109.222 141.767 109.678 141.763 110.121 141.92C110.563 142.08 110.967 142.378 111.333 142.815C111.696 143.252 111.996 143.809 112.234 144.486C112.476 145.175 112.587 145.802 112.566 146.368C112.544 146.937 112.402 147.419 112.142 147.813C111.88 148.21 111.511 148.493 111.034 148.66C110.623 148.805 110.237 148.849 109.875 148.793C109.511 148.739 109.181 148.566 108.886 148.274C108.587 147.983 108.333 147.556 108.121 146.993L109.164 146.626C109.309 146.984 109.46 147.257 109.616 147.444C109.769 147.636 109.934 147.755 110.109 147.799C110.285 147.847 110.481 147.833 110.697 147.757C111.005 147.649 111.23 147.473 111.374 147.23C111.518 146.987 111.577 146.669 111.552 146.276C111.527 145.883 111.416 145.405 111.218 144.843C110.957 144.101 110.633 143.546 110.244 143.177C109.857 142.812 109.444 142.706 109.006 142.86C108.764 142.945 108.583 143.055 108.464 143.19C108.346 143.324 108.277 143.483 108.258 143.666C108.239 143.848 108.262 144.055 108.326 144.285L107.328 144.635C107.214 144.254 107.171 143.915 107.2 143.619C107.227 143.327 107.312 143.071 107.454 142.852C107.594 142.637 107.778 142.454 108.004 142.305C108.227 142.153 108.477 142.029 108.755 141.931Z" fill="#8D91A5"/>
<path d="M100.579 146.267L100.886 147.317L99.9555 149.233L98.8641 151.57L97.6339 151.768L99.3574 148.296L99.5974 147.981L100.579 146.267ZM101.281 144.259L102.364 151.009L101.334 151.174L100.25 144.424L101.281 144.259ZM97.5763 144.854L100.164 148.162L99.4039 148.793L96.4343 145.037L97.5763 144.854Z" fill="#8D91A5"/>
<path d="M91.4613 145.416L91.3278 152.251L90.2702 152.23L90.3947 145.856L90.8829 146.383L87.2211 146.311L87.2402 145.334L91.4613 145.416Z" fill="#8D91A5"/>
<path d="M81.622 144.817L80.2756 151.519L76.3207 150.724L76.4967 149.848L79.8892 150.53L79.3422 150.866L79.8681 148.248L80.2651 148.659L77.2275 148.048L77.4035 147.173L80.2337 147.741L79.9079 148.05L80.5264 144.971L80.879 145.602L77.3206 144.888L77.5011 143.989L81.622 144.817Z" fill="#8D91A5"/>
<path d="M72.098 142.509L69.5818 148.865L68.419 148.405L68.341 143.914L68.3547 142.372L68.3198 142.358L67.9259 143.8L66.4169 147.612L65.4726 147.238L67.9889 140.882L69.1517 141.343L69.2277 145.787L69.2095 147.302L69.2445 147.316L69.6845 145.846L71.1538 142.135L72.098 142.509Z" fill="#8D91A5"/>
<path d="M61.1693 137.236C61.5767 137.489 61.8981 137.773 62.1336 138.089C62.3675 138.408 62.4884 138.759 62.4965 139.144C62.5003 139.531 62.3657 139.952 62.0926 140.41L61.2219 139.869C61.3891 139.582 61.4616 139.323 61.4394 139.091C61.4171 138.86 61.3313 138.653 61.1819 138.472C61.0309 138.293 60.8488 138.138 60.6358 138.006C60.3988 137.859 60.1768 137.771 59.9697 137.742C59.7626 137.713 59.5815 137.731 59.4262 137.797C59.2666 137.864 59.1454 137.964 59.0627 138.097C58.9404 138.294 58.8873 138.481 58.9034 138.657C58.9179 138.835 58.9937 139.028 59.1309 139.235C59.268 139.442 59.459 139.684 59.7036 139.962C59.9647 140.26 60.1739 140.571 60.3313 140.894C60.4871 141.219 60.5668 141.545 60.5704 141.872C60.574 142.199 60.4816 142.514 60.2931 142.818C60.0749 143.169 59.8068 143.405 59.4889 143.525C59.1693 143.647 58.831 143.675 58.4739 143.609C58.1126 143.543 57.7655 143.407 57.4327 143.2C56.9294 142.888 56.5991 142.493 56.4419 142.015C56.2847 141.537 56.3481 140.996 56.632 140.39L57.4668 140.908C57.3767 141.107 57.335 141.298 57.3419 141.483C57.3487 141.669 57.4039 141.841 57.5074 142.001C57.6082 142.16 57.7611 142.303 57.9661 142.43C58.259 142.612 58.5367 142.699 58.7992 142.693C59.06 142.689 59.2656 142.565 59.416 142.323C59.5202 142.155 59.5832 141.992 59.605 141.832C59.6251 141.674 59.5844 141.491 59.4828 141.28C59.3795 141.072 59.1978 140.806 58.9377 140.482C58.7493 140.251 58.5735 140.02 58.4104 139.789C58.2456 139.562 58.1155 139.331 58.0201 139.099C57.9248 138.866 57.8835 138.627 57.8964 138.38C57.9077 138.136 57.9968 137.88 58.1638 137.611C58.3694 137.274 58.634 137.038 58.9576 136.903C59.2811 136.768 59.6352 136.73 60.0197 136.788C60.4 136.847 60.7832 136.996 61.1693 137.236Z" fill="#8D91A5"/>
<path d="M46.4964 124.205C46.642 124.394 46.6998 124.604 46.6699 124.837C46.6381 125.068 46.518 125.264 46.3096 125.425C46.1038 125.584 45.8853 125.649 45.6542 125.622C45.4211 125.592 45.2318 125.483 45.0862 125.294C44.9387 125.103 44.8808 124.893 44.9126 124.662C44.9445 124.431 45.0633 124.237 45.2692 124.078C45.4776 123.917 45.6973 123.85 45.9284 123.877C46.1595 123.905 46.3488 124.014 46.4964 124.205Z" fill="#8D91A5"/>
<path d="M37.7467 108.897L31.2167 110.919L30.627 109.015C30.4564 108.464 30.3948 108.01 30.442 107.654C30.4893 107.299 30.6143 107.019 30.817 106.815C31.0187 106.608 31.2692 106.458 31.5687 106.365C31.9669 106.242 32.3337 106.24 32.6692 106.359C33.0017 106.479 33.2472 106.684 33.4056 106.973C33.3441 106.743 33.3339 106.503 33.3749 106.254C33.4159 106.005 33.5194 105.778 33.6854 105.572C33.8485 105.367 34.0857 105.217 34.397 105.12C34.8462 104.981 35.2509 104.969 35.6113 105.084C35.9678 105.197 36.2707 105.402 36.5201 105.698C36.7695 105.995 36.9582 106.35 37.0861 106.763L37.7467 108.897ZM36.5903 108.182L36.2787 107.176C36.1554 106.778 35.9703 106.487 35.7234 106.304C35.4726 106.12 35.1645 106.084 34.7993 106.197C34.4999 106.29 34.2959 106.415 34.1874 106.573C34.0789 106.732 34.0314 106.912 34.0449 107.115C34.0584 107.317 34.1 107.531 34.1695 107.755L34.5019 108.829L36.5903 108.182ZM33.6935 109.079L33.4251 108.212C33.3416 107.943 33.2346 107.735 33.1039 107.588C32.9732 107.442 32.8155 107.351 32.6309 107.316C32.4462 107.282 32.2326 107.302 31.9901 107.377C31.6988 107.464 31.5078 107.61 31.4171 107.815C31.3225 108.018 31.3476 108.353 31.4922 108.821L31.7578 109.678L33.6935 109.079Z" fill="#8D91A5"/>
<path d="M35.201 99.2761L28.4154 100.105L28.2871 99.0552L34.6153 98.282L34.1624 98.8394L33.7182 95.2039L34.6889 95.0853L35.201 99.2761Z" fill="#8D91A5"/>
<path d="M34.671 87.3586C34.6425 87.8561 34.4817 88.2802 34.1885 88.6307C33.8922 88.9811 33.4724 89.2412 32.9289 89.4111C32.3824 89.5808 31.7195 89.6433 30.9403 89.5988C29.8076 89.534 28.9518 89.2637 28.3731 88.788C27.7946 88.3091 27.5266 87.6973 27.5692 86.9525C27.6123 86.1984 27.9484 85.6195 28.5773 85.216C29.2063 84.8124 30.0872 84.643 31.22 84.7078C31.9992 84.7523 32.6506 84.89 33.1742 85.1209C33.6949 85.3485 34.0825 85.6532 34.3369 86.0351C34.5884 86.4136 34.6998 86.8548 34.671 87.3586ZM33.6993 87.303C33.7246 86.8618 33.5437 86.5108 33.1568 86.2501C32.7669 85.9861 32.101 85.8271 31.1591 85.7733C30.2391 85.7207 29.5798 85.8039 29.1811 86.0228C28.7795 86.2384 28.566 86.5669 28.5408 87.0081C28.5159 87.443 28.6905 87.7937 29.0646 88.0599C29.4357 88.3229 30.0813 88.4807 31.0013 88.5333C31.9432 88.5871 32.6228 88.5051 33.0403 88.2872C33.4548 88.0661 33.6745 87.738 33.6993 87.303Z" fill="#8D91A5"/>
<path d="M36.0133 77.5428C35.8976 78.0243 35.6536 78.4089 35.2815 78.6966C34.907 78.9806 34.4373 79.1578 33.8723 79.2284C33.3081 79.2959 32.677 79.2458 31.9791 79.0781C31.269 78.9075 30.6822 78.6601 30.2185 78.3359C29.7525 78.0079 29.4248 77.6278 29.2354 77.1954C29.0436 76.7593 29.0067 76.2959 29.1246 75.8052C29.2264 75.3816 29.3988 75.033 29.6418 74.7594C29.8856 74.4827 30.2101 74.2996 30.6152 74.21C31.0211 74.1173 31.5181 74.1352 32.1061 74.2636L31.848 75.3379C31.4687 75.2661 31.158 75.2446 30.9157 75.2734C30.6712 75.2985 30.4826 75.3724 30.3499 75.4953C30.2142 75.6174 30.1196 75.7897 30.0661 76.0121C29.9899 76.3291 30.015 76.6139 30.1412 76.8667C30.2674 77.1195 30.5025 77.342 30.8463 77.5342C31.1902 77.7264 31.6516 77.8921 32.2307 78.0312C32.9956 78.2151 33.6383 78.2438 34.1586 78.1174C34.6759 77.9902 34.9888 77.7012 35.0972 77.2501C35.1572 77.0002 35.1629 76.7888 35.1142 76.6159C35.0655 76.443 34.9695 76.2991 34.8263 76.1841C34.6831 76.0691 34.4975 75.9761 34.2695 75.9053L34.5167 74.8767C34.8993 74.988 35.2071 75.1361 35.4399 75.321C35.6703 75.5021 35.8391 75.7119 35.9462 75.9503C36.051 76.1851 36.1046 76.4381 36.1071 76.7095C36.1134 76.9785 36.0821 77.2563 36.0133 77.5428Z" fill="#8D91A5"/>
<path d="M36.8099 68.3231L35.7609 68.0104L34.6567 66.1891L33.2863 64.0039L33.7881 62.8636L35.7685 66.1955L35.9026 66.5678L36.8099 68.3231ZM38.1155 70.0019L31.8585 67.2486L32.2789 66.2933L38.5359 69.0466L38.1155 70.0019ZM39.6266 66.5679L35.4434 66.9461L35.3256 65.9646L40.0924 65.5093L39.6266 66.5679Z" fill="#8D91A5"/>
<path d="M42.4736 61.128L36.8057 57.3063L37.3971 56.4292L42.683 59.9933L41.9756 60.1174L44.0231 57.0808L44.8339 57.6275L42.4736 61.128Z" fill="#8D91A5"/>
<path d="M48.3169 53.1877L43.4186 48.4193L46.2324 45.5288L46.8725 46.1519L44.4588 48.6314L44.4734 47.9895L46.3869 49.8523L45.8265 49.9629L47.9877 47.7428L48.6278 48.3659L46.6142 50.4344L46.5318 49.9933L48.7822 52.184L48.0601 52.1372L50.5918 49.5364L51.2488 50.1759L48.3169 53.1877Z" fill="#8D91A5"/>
<path d="M55.423 46.4429L51.4503 40.8798L52.468 40.153L56.2821 42.5248L57.5696 43.3732L57.6002 43.3514L56.6029 42.2379L54.2204 38.9016L55.0468 38.3114L59.0195 43.8746L58.0018 44.6013L54.2277 42.253L52.9652 41.4155L52.9346 41.4374L53.9298 42.6044L56.2494 45.8527L55.423 46.4429Z" fill="#8D91A5"/>
<path d="M65.7849 40.1257C65.3513 40.3306 64.9379 40.4462 64.5448 40.4725C64.1503 40.496 63.7891 40.4066 63.4613 40.2045C63.135 39.9981 62.8538 39.6561 62.6176 39.1783L63.5443 38.7404C63.6948 39.0368 63.8733 39.2385 64.0798 39.3454C64.2863 39.4524 64.5063 39.4923 64.7396 39.4652C64.9716 39.4353 65.201 39.3668 65.4277 39.2597C65.6799 39.1405 65.8744 39.0018 66.0111 38.8436C66.1478 38.6854 66.2306 38.5232 66.2595 38.357C66.29 38.1867 66.2717 38.0306 66.2047 37.8889C66.1057 37.6792 65.9778 37.5334 65.8212 37.4514C65.6632 37.3665 65.4601 37.3256 65.2119 37.3285C64.9637 37.3314 64.6567 37.3603 64.2909 37.4153C63.8985 37.4724 63.524 37.4795 63.1674 37.4366C62.8095 37.3908 62.4923 37.2806 62.2157 37.1063C61.9392 36.9319 61.7246 36.6831 61.5719 36.3601C61.3952 35.986 61.3427 35.6329 61.4146 35.3008C61.4852 34.9659 61.6453 34.6666 61.8952 34.403C62.1465 34.1351 62.4492 33.9175 62.8035 33.7502C63.3391 33.4971 63.8501 33.4341 64.3366 33.5613C64.8231 33.6885 65.2437 34.0357 65.5985 34.603L64.71 35.0228C64.5921 34.8394 64.4536 34.7003 64.2945 34.6056C64.1354 34.5109 63.9605 34.4636 63.7698 34.4635C63.5819 34.4622 63.3789 34.513 63.1607 34.6162C62.849 34.7635 62.6247 34.9492 62.4879 35.1732C62.3498 35.3945 62.3417 35.6341 62.4636 35.892C62.5479 36.0705 62.6513 36.2123 62.7738 36.3174C62.8949 36.4196 63.0715 36.4852 63.3036 36.5142C63.5343 36.5404 63.8563 36.5321 64.2695 36.4894C64.566 36.4568 64.8553 36.4344 65.1374 36.4225C65.4182 36.4077 65.6821 36.4234 65.9292 36.4695C66.1764 36.5157 66.4 36.6111 66.6001 36.7557C66.7988 36.8976 66.9658 37.1116 67.1011 37.3978C67.2726 37.7535 67.3272 38.1039 67.2649 38.4488C67.2025 38.7937 67.0426 39.1119 66.7852 39.4034C66.5292 39.6908 66.1958 39.9315 65.7849 40.1257Z" fill="#8D91A5"/>
<path d="M84.6934 34.874C84.456 34.894 84.2476 34.8282 84.0681 34.6766C83.8918 34.5247 83.7926 34.3176 83.7705 34.0552C83.7486 33.796 83.812 33.5768 83.9604 33.3976C84.112 33.2181 84.3065 33.1184 84.5439 33.0984C84.7844 33.0781 84.9928 33.1439 85.1691 33.2958C85.3455 33.4477 85.4446 33.6532 85.4664 33.9124C85.4885 34.1748 85.4253 34.3956 85.2768 34.5748C85.1284 34.754 84.9339 34.8537 84.6934 34.874Z" fill="#8D91A5"/>
<path d="M102.299 35.8343L104.144 29.2522L106.064 29.7905C106.619 29.9462 107.033 30.1405 107.307 30.3734C107.58 30.6063 107.747 30.8631 107.808 31.144C107.873 31.4257 107.862 31.7174 107.778 32.0192C107.665 32.4206 107.468 32.7298 107.186 32.9469C106.904 33.1609 106.599 33.2561 106.271 33.2323C106.497 33.3057 106.704 33.4271 106.891 33.5967C107.078 33.7663 107.213 33.9766 107.295 34.2276C107.379 34.4756 107.376 34.7566 107.288 35.0704C107.161 35.5231 106.952 35.8697 106.66 36.11C106.372 36.3483 106.035 36.4915 105.651 36.5399C105.266 36.5883 104.865 36.5541 104.449 36.4373L102.299 35.8343ZM103.527 35.2509L104.541 35.5353C104.942 35.6479 105.286 35.6501 105.574 35.5419C105.865 35.4315 106.063 35.1923 106.166 34.8241C106.251 34.5223 106.256 34.2829 106.182 34.1059C106.108 33.9288 105.982 33.791 105.805 33.6924C105.627 33.5939 105.425 33.5128 105.199 33.4493L104.117 33.1459L103.527 35.2509ZM104.345 32.3311L105.219 32.5761C105.491 32.6523 105.724 32.6753 105.918 32.645C106.112 32.6148 106.273 32.5316 106.403 32.3953C106.532 32.2591 106.631 32.0687 106.7 31.8243C106.785 31.5324 106.766 31.2926 106.642 31.1051C106.523 30.9154 106.228 30.7545 105.757 30.6225L104.893 30.38L104.345 32.3311Z" fill="#8D91A5"/>
<path d="M111.761 38.9178L114.748 32.7687L115.699 33.2308L112.914 38.9655L112.692 38.2826L115.986 39.8826L115.559 40.7623L111.761 38.9178Z" fill="#8D91A5"/>
<path d="M122.057 44.9413C121.655 44.6474 121.386 44.2822 121.251 43.8457C121.117 43.4066 121.127 42.9128 121.279 42.3642C121.433 41.8131 121.74 41.2224 122.201 40.5921C122.87 39.6759 123.561 39.1038 124.275 38.876C124.991 38.65 125.651 38.757 126.253 39.197C126.863 39.6425 127.167 40.2389 127.164 40.9863C127.162 41.7336 126.826 42.5654 126.157 43.4816C125.696 44.1119 125.227 44.5842 124.749 44.8987C124.275 45.2126 123.809 45.3727 123.35 45.3791C122.896 45.3849 122.465 45.239 122.057 44.9413ZM122.631 44.1554C122.988 44.4161 123.381 44.4547 123.81 44.2712C124.244 44.087 124.738 43.614 125.295 42.8521C125.838 42.108 126.126 41.5091 126.159 41.0554C126.196 40.6011 126.036 40.2435 125.679 39.9829C125.327 39.7259 124.938 39.6823 124.511 39.8519C124.089 40.0209 123.606 40.4775 123.063 41.2216C122.506 41.9835 122.206 42.5988 122.162 43.0677C122.123 43.5359 122.28 43.8984 122.631 44.1554Z" fill="#8D91A5"/>
<path d="M129.573 51.3967C129.232 51.0382 129.041 50.6245 129.001 50.1558C128.966 49.6872 129.072 49.1965 129.32 48.6837C129.569 48.1731 129.954 47.6703 130.473 47.1752C131.002 46.6714 131.528 46.3127 132.052 46.0993C132.581 45.8859 133.078 45.817 133.544 45.8925C134.014 45.9682 134.423 46.1887 134.771 46.554C135.072 46.8694 135.271 47.2034 135.369 47.5561C135.469 47.911 135.447 48.2829 135.302 48.6718C135.16 49.063 134.875 49.4707 134.448 49.8949L133.686 49.095C133.952 48.8155 134.139 48.5661 134.246 48.347C134.358 48.128 134.398 47.9295 134.367 47.7514C134.338 47.5711 134.245 47.3981 134.087 47.2325C133.862 46.9965 133.609 46.8629 133.328 46.8317C133.047 46.8006 132.733 46.8772 132.385 47.0617C132.037 47.2462 131.647 47.5438 131.216 47.9546C130.646 48.4973 130.274 49.0215 130.097 49.5271C129.923 50.0306 129.996 50.4503 130.316 50.7861C130.494 50.9722 130.668 51.0917 130.84 51.1446C131.011 51.1975 131.184 51.195 131.359 51.1372C131.533 51.0793 131.712 50.9739 131.895 50.8209L132.625 51.5868C132.324 51.8477 132.032 52.0258 131.751 52.121C131.473 52.2163 131.206 52.2442 130.947 52.2047C130.693 52.1653 130.452 52.073 130.222 51.9278C129.993 51.787 129.777 51.61 129.573 51.3967Z" fill="#8D91A5"/>
<path d="M136.885 57.0687L137.717 56.3573L139.846 56.4185L142.425 56.4534L143.11 57.4938L139.237 57.3488L138.851 57.2593L136.885 57.0687ZM134.766 57.254L140.474 53.4932L141.049 54.3647L135.34 58.1256L134.766 57.254ZM136.83 60.387L138.783 56.6683L139.671 57.1021L137.466 61.3528L136.83 60.387Z" fill="#8D91A5"/>
<path d="M139.855 65.7298L146.141 63.0436L146.557 64.0163L140.695 66.5215L140.974 65.86L142.413 69.2279L141.514 69.6121L139.855 65.7298Z" fill="#8D91A5"/>
<path d="M143.352 74.9478L150.015 73.4218L150.916 77.3539L150.045 77.5533L149.272 74.1803L149.804 74.541L147.2 75.1371L147.412 74.6064L148.103 77.6266L147.233 77.826L146.588 75.0121L147.003 75.1823L143.942 75.8834L144.373 75.3023L145.184 78.8403L144.29 79.0449L143.352 74.9478Z" fill="#8D91A5"/>
<path d="M145.16 84.578L151.989 84.2608L152.047 85.51L147.985 87.426L146.573 88.047L146.575 88.0846L148.051 87.8512L152.147 87.661L152.194 88.6754L145.365 88.9927L145.307 87.7434L149.328 85.8481L150.717 85.2424L150.715 85.2048L149.195 85.4072L145.207 85.5924L145.16 84.578Z" fill="#8D91A5"/>
<path d="M144.842 96.7085C144.905 96.2332 145.032 95.8232 145.223 95.4787C145.418 95.1347 145.689 94.8798 146.037 94.7142C146.387 94.5522 146.827 94.5016 147.356 94.5626L147.221 95.5786C146.89 95.5441 146.624 95.5845 146.422 95.6999C146.22 95.8154 146.067 95.9784 145.964 96.1891C145.863 96.4002 145.796 96.63 145.763 96.8786C145.726 97.1551 145.737 97.3937 145.796 97.5944C145.854 97.795 145.946 97.9526 146.069 98.0671C146.196 98.1852 146.337 98.2545 146.492 98.2752C146.722 98.3058 146.914 98.2776 147.068 98.1905C147.225 98.1039 147.37 97.9556 147.502 97.7455C147.634 97.5355 147.776 97.2619 147.929 96.9249C148.094 96.5642 148.291 96.2458 148.521 95.9697C148.753 95.6939 149.018 95.4873 149.315 95.3497C149.611 95.2121 149.937 95.1668 150.291 95.2139C150.701 95.2685 151.026 95.4161 151.266 95.6567C151.509 95.8977 151.673 96.1947 151.759 96.5476C151.848 96.9041 151.866 97.2765 151.814 97.6648C151.736 98.2521 151.512 98.7154 151.141 99.055C150.77 99.3946 150.25 99.5594 149.581 99.5494L149.711 98.5754C149.929 98.576 150.121 98.5351 150.287 98.4528C150.453 98.3706 150.587 98.2494 150.691 98.0892C150.794 97.9322 150.861 97.7341 150.893 97.4948C150.939 97.1531 150.904 96.8639 150.79 96.6274C150.68 96.3913 150.483 96.2545 150.2 96.2169C150.004 96.1908 149.829 96.2007 149.674 96.2465C149.523 96.2927 149.372 96.4055 149.222 96.5847C149.074 96.7643 148.906 97.0392 148.718 97.4093C148.585 97.6762 148.446 97.9313 148.303 98.1747C148.163 98.4185 148.007 98.6317 147.834 98.8142C147.661 98.9967 147.46 99.1327 147.229 99.2223C147.003 99.3122 146.732 99.3363 146.418 99.2946C146.026 99.2456 145.703 99.1013 145.447 98.8617C145.191 98.6222 145.01 98.3151 144.905 97.9407C144.803 97.5698 144.782 97.159 144.842 96.7085Z" fill="#8D91A5"/>
<path d="M138.99 115.44C139.102 115.23 139.27 115.09 139.495 115.022C139.718 114.956 139.946 114.985 140.178 115.109C140.408 115.231 140.558 115.404 140.628 115.625C140.696 115.85 140.674 116.068 140.562 116.278C140.449 116.491 140.28 116.63 140.057 116.696C139.834 116.762 139.607 116.733 139.378 116.611C139.145 116.487 138.994 116.314 138.924 116.092C138.854 115.87 138.876 115.653 138.99 115.44Z" fill="#8D91A5"/>
</svg>
