<?xml version="1.0" standalone="no"?>
<!DOCTYPE svg PUBLIC "-//W3C//DTD SVG 20010904//EN"
 "http://www.w3.org/TR/2001/REC-SVG-20010904/DTD/svg10.dtd">
<svg version="1.0" xmlns="http://www.w3.org/2000/svg"
 width="70.000000pt" height="70.000000pt" viewBox="0 0 70.000000 70.000000"
 preserveAspectRatio="xMidYMid meet">
<metadata>
Created by potrace 1.14, written by Peter Selinger 2001-2017
</metadata>
<g transform="translate(0.000000,70.000000) scale(0.100000,-0.100000)"
fill="#000000" stroke="none">
<path d="M295 687 c-11 -7 -22 -14 -25 -17 -3 -3 -50 -27 -105 -54 -55 -27
-115 -60 -132 -73 l-33 -24 0 -160 c0 -88 4 -169 10 -179 15 -28 284 -172 332
-178 33 -4 331 149 336 172 2 9 7 16 12 16 13 0 7 312 -6 334 -16 26 -308 176
-342 175 -15 0 -36 -6 -47 -12z m185 -148 c57 -30 102 -60 107 -73 6 -11 9
-66 9 -121 -1 -101 -15 -145 -43 -145 -7 0 -13 -5 -13 -10 0 -6 -3 -9 -7 -8
-5 1 -50 -20 -102 -45 -52 -26 -103 -47 -113 -47 -17 0 -17 2 -4 34 8 19 12
37 8 40 -3 3 -1 6 4 6 11 0 41 68 37 82 -2 4 2 8 8 8 5 0 7 4 4 10 -10 16 23
12 50 -6 14 -9 26 -15 26 -13 6 16 3 59 -3 59 -4 0 -7 3 -6 8 3 11 -23 96 -33
108 -10 13 -179 -23 -191 -41 -4 -5 6 -17 23 -25 l30 -16 -23 -30 c-36 -46
-122 -134 -131 -134 -4 0 -6 4 -2 9 3 5 1 12 -4 15 -5 3 -9 27 -9 53 0 27 -1
53 -2 58 -1 6 -1 15 0 20 1 6 2 36 2 67 0 39 6 63 17 76 17 19 71 55 71 48 0
-2 30 12 68 33 43 24 77 36 96 34 15 -2 72 -26 126 -54z"/>
</g>
</svg>
